<?xml version="1.0" encoding="UTF-8" standalone="no"?>
<!-- Created with Inkscape (http://www.inkscape.org/) -->

<svg
   xmlns:dc="http://purl.org/dc/elements/1.1/"
   xmlns:cc="http://creativecommons.org/ns#"
   xmlns:rdf="http://www.w3.org/1999/02/22-rdf-syntax-ns#"
   xmlns:svg="http://www.w3.org/2000/svg"
   xmlns="http://www.w3.org/2000/svg"
   xmlns:sodipodi="http://sodipodi.sourceforge.net/DTD/sodipodi-0.dtd"
   xmlns:inkscape="http://www.inkscape.org/namespaces/inkscape"
   width="744.09448819"
   height="1052.3622047"
   id="svg3248"
   version="1.1"
   inkscape:version="0.48+devel r9772"
   sodipodi:docname="due.svg">
  <defs
     id="defs3250" />
  <sodipodi:namedview
     id="base"
     pagecolor="#ffffff"
     bordercolor="#666666"
     borderopacity="1.0"
     inkscape:pageopacity="0.0"
     inkscape:pageshadow="2"
     inkscape:zoom="0.66136926"
     inkscape:cx="372.04724"
     inkscape:cy="526.18109"
     inkscape:document-units="px"
     inkscape:current-layer="layer1"
     showgrid="false"
     inkscape:window-width="1440"
     inkscape:window-height="851"
     inkscape:window-x="0"
     inkscape:window-y="1"
     inkscape:window-maximized="1" />
  <metadata
     id="metadata3253">
    <rdf:RDF>
      <cc:Work
         rdf:about="">
        <dc:format>image/svg+xml</dc:format>
        <dc:type
           rdf:resource="http://purl.org/dc/dcmitype/StillImage" />
        <dc:title></dc:title>
      </cc:Work>
    </rdf:RDF>
  </metadata>
  <g
     inkscape:label="Layer 1"
     inkscape:groupmode="layer"
     id="layer1">
    <g
       id="g3299">
      <g
         id="text3256"
         style="font-size:1048.91357422px;font-style:normal;font-variant:normal;font-weight:300;font-stretch:normal;text-align:start;line-height:125%;letter-spacing:0px;word-spacing:0px;writing-mode:lr-tb;text-anchor:start;fill:#008080;fill-opacity:1;stroke:none;font-family:Oriya MN;-inkscape-font-specification:Oriya MN Light">
        <path
           id="path3294"
           style=""
           d="m 220.73633,765.23285 0,-18.9501 c 52.9236,-50.19208 98.67695,-94.40894 137.26018,-132.65069 38.9243,-38.24145 71.87354,-72.0443 98.84781,-101.40864 26.97371,-29.70527 48.82605,-55.48421 65.5571,-77.33689 17.07179,-22.19345 30.21735,-41.99714 39.43669,-59.41112 9.56001,-17.41319 16.04743,-33.29029 19.46226,-47.63133 3.41403,-14.6816 5.12124,-29.36365 5.12165,-44.04617 -4.1e-4,-21.16898 -3.41484,-41.65555 -10.24329,-61.45978 -6.48782,-19.80315 -16.21894,-37.38745 -29.1934,-52.75298 -12.9752,-15.36433 -29.19374,-27.65628 -48.65566,-36.87587 -19.12112,-9.21832 -41.48563,-13.8278 -67.09359,-13.82845 -19.80395,6.5e-4 -39.26619,3.41508 -58.38679,10.2433 -19.121,6.82949 -36.53459,16.04845 -52.24081,27.6569 -15.70652,11.60967 -28.85207,25.26738 -39.4367,40.97319 -10.58483,15.70694 -17.41369,32.43764 -20.48659,50.19215 l -20.99876,0 c 2.04859,-29.36357 9.73106,-56.84972 23.04742,-82.45854 13.31618,-25.94906 30.21761,-48.48429 50.70432,-67.605756 20.82787,-19.461577 44.55815,-34.655785 71.19091,-45.58267 26.63233,-11.266902 54.63065,-16.900709 83.99503,-16.901439 36.87554,7.3e-4 69.31261,5.293094 97.31132,15.877109 27.99792,10.585444 51.21604,24.926045 69.65442,43.021846 18.77889,17.7557 32.94877,38.58372 42.50968,62.48411 9.55989,23.56017 14.34009,48.4855 14.34061,74.77607 -5.2e-4,27.6574 -6.14649,55.65572 -18.43793,83.99503 -11.951,27.99876 -31.58397,59.41151 -58.89896,94.23833 -27.31587,34.82753 -62.82593,74.4349 -106.53028,118.82224 -43.70502,44.38781 -97.14084,96.28713 -160.30759,155.69811 l 381.5628,0 -53.26515,80.92204 -455.8267,0" />
      </g>
      <g
         id="text3260"
         style="font-size:1048.91357422px;font-style:normal;font-variant:normal;font-weight:300;font-stretch:normal;text-align:start;line-height:125%;letter-spacing:0px;word-spacing:0px;writing-mode:lr-tb;text-anchor:start;fill:#008080;fill-opacity:1;stroke:none;font-family:Oriya MN;-inkscape-font-specification:Oriya MN Light"
         transform="scale(-1,-1)">
        <path
           id="path3297"
           style=""
           d="m -523.35815,-287.1293 0,-18.9501 c 52.9236,-50.19209 98.67695,-94.40894 137.26018,-132.65069 38.9243,-38.24145 71.87354,-72.0443 98.84781,-101.40864 26.9737,-29.70528 48.82605,-55.48421 65.5571,-77.33689 17.07179,-22.19346 30.21734,-41.99714 39.43669,-59.41112 9.56001,-17.4132 16.04743,-33.29029 19.46226,-47.63133 3.41402,-14.68161 5.12124,-29.36365 5.12165,-44.04617 -4.1e-4,-21.16898 -3.41484,-41.65555 -10.2433,-61.45978 -6.48781,-19.80315 -16.21894,-37.38746 -29.19339,-52.75298 -12.9752,-15.36434 -29.19374,-27.65628 -48.65566,-36.87587 -19.12113,-9.21832 -41.48563,-13.8278 -67.09359,-13.82845 -19.80395,6.5e-4 -39.26619,3.41508 -58.38679,10.2433 -19.121,6.82949 -36.53459,16.04845 -52.24082,27.6569 -15.70652,11.60966 -28.85207,25.26738 -39.43669,40.97318 -10.58484,15.70694 -17.41369,32.43765 -20.48659,50.19216 l -20.99876,0 c 2.04859,-29.36357 9.73106,-56.84972 23.04742,-82.45854 13.31618,-25.94906 30.2176,-48.48429 50.70432,-67.60576 20.82787,-19.46157 44.55815,-34.65578 71.19091,-45.58262 26.63233,-11.267 54.63065,-16.9008 83.99503,-16.9015 36.87554,7e-4 69.31261,5.2931 97.31132,15.8771 27.99792,10.58547 51.21604,24.92607 69.65441,43.02187 18.778901,17.7557 32.94878,38.58371 42.509685,62.48411 9.559897,23.56016 14.340097,48.48549 14.340615,74.77606 -5.18e-4,27.65741 -6.14649,55.65573 -18.437934,83.99504 -11.951,27.99876 -31.583966,59.41151 -58.898956,94.23832 -27.31587,34.82753 -62.82593,74.43491 -106.53028,118.82225 -43.70503,44.38781 -97.14084,96.28712 -160.3076,155.6981 l 381.562803,0 -53.265143,80.92205 -455.8267,0" />
      </g>
    </g>
  </g>
</svg>
